<!DOCTYPE svg PUBLIC "-//W3C//DTD SVG 1.1//EN" "http://www.w3.org/Graphics/SVG/1.1/DTD/svg11.dtd">
<svg version="1.1" id="Isolation_Mode" xmlns="http://www.w3.org/2000/svg" xmlns:xlink="http://www.w3.org/1999/xlink" x="0px"
	 y="0px" width="148px" height="93px" viewBox="1074.5 -108 148 93" enable-background="new 1074.5 -108 148 93"
	 xml:space="preserve">
<rect x="1074.5" y="-108" fill-rule="evenodd" clip-rule="evenodd" fill="#606866" width="61.333" height="93"/>
<rect x="1161.167" y="-108" fill-rule="evenodd" clip-rule="evenodd" fill="#FFFFFF" width="61.333" height="93"/>
<path fill-rule="evenodd" clip-rule="evenodd" fill="#606866" d="M1190.177-20.373C1196.889-38.775,1222.5-108,1222.5-108h-109
	l-39,93c0,0,50.774,0,106.8,0C1184.751-15,1189.165-17.598,1190.177-20.373z"/>
<path fill="#FFFFFF" d="M1143.651-60.771c0,0.291-0.03,0.575-0.072,0.854l12.16,5.955c1.04-1.094,2.507-1.781,4.136-1.781
	c3.156,0,5.714,2.559,5.714,5.714s-2.558,5.713-5.714,5.713c-3.155,0-5.712-2.558-5.712-5.713c0-0.292,0.03-0.575,0.071-0.854
	l-12.16-5.953c-1.04,1.094-2.506,1.779-4.136,1.779c-3.156,0-5.714-2.557-5.714-5.713c0-3.154,2.558-5.713,5.714-5.713
	c1.636,0,3.108,0.693,4.15,1.795l12.143-5.889c-0.041-0.271-0.068-0.549-0.068-0.833c0-3.155,2.557-5.713,5.712-5.713
	c3.156,0,5.714,2.558,5.714,5.713s-2.558,5.714-5.714,5.714c-1.636,0-3.108-0.693-4.15-1.796l-12.143,5.889
	C1143.624-61.33,1143.651-61.055,1143.651-60.771z"/>
</svg>
