<!DOCTYPE svg PUBLIC "-//W3C//DTD SVG 1.1//EN" "http://www.w3.org/Graphics/SVG/1.1/DTD/svg11.dtd">
<svg version="1.1" id="Layer_1" xmlns="http://www.w3.org/2000/svg" xmlns:xlink="http://www.w3.org/1999/xlink" x="0px" y="0px"
	 width="32px" height="32px" viewBox="0 0 32 32" enable-background="new 0 0 32 32" xml:space="preserve">
<g>
	<path fill-rule="evenodd" clip-rule="evenodd" fill="#FFFFFF" d="M27.564,32c-7.707,0-15.418,0-23.126,0
		c-0.057-0.018-0.112-0.046-0.172-0.056c-2.033-0.365-3.373-1.537-4.043-3.48c-0.101-0.291-0.15-0.6-0.222-0.899
		C0,20.71,0,13.856,0,7C0.02,6.945,0.05,6.888,0.061,6.83c0.347-1.922,1.437-3.238,3.251-3.948c1.049-0.41,2.152-0.293,3.242-0.284
		c0.017,0,0.032,0.023,0.063,0.05c0,0.519-0.001,1.049,0,1.58C6.62,4.769,6.61,5.31,6.628,5.851C6.673,7.173,7.661,8.4,8.968,8.615
		c0.751,0.125,1.534,0.106,2.302,0.081c1.572-0.053,2.818-1.338,2.853-2.915c0.021-0.948,0.008-1.896,0.011-2.843
		c0-0.111,0-0.221,0-0.332c1.476,0,2.908,0,4.359,0c0,0.136,0,0.249,0,0.363c0.004,0.957-0.012,1.917,0.014,2.874
		c0.033,1.324,1.025,2.555,2.326,2.771c0.765,0.126,1.557,0.105,2.333,0.079c1.395-0.045,2.603-1.085,2.771-2.473
		c0.118-0.996,0.057-2.015,0.071-3.023c0.004-0.195,0-0.391,0-0.613c0.368,0,0.699-0.002,1.032,0
		c2.222,0.007,4.211,1.546,4.782,3.698C31.885,6.52,31.941,6.76,32,7c0,6.855,0,13.71,0,20.563c-0.019,0.057-0.047,0.112-0.06,0.172
		c-0.306,1.807-1.295,3.092-2.958,3.84C28.535,31.775,28.039,31.863,27.564,32z M16.025,11.081c-3.935,0-7.872,0-11.809,0
		c-1.118,0-1.722,0.595-1.722,1.71c-0.002,4.676-0.003,9.353,0,14.028c0.001,1.621,1.054,2.686,2.672,2.688
		c7.217,0.003,14.434,0.003,21.649,0c1.645-0.003,2.689-1.058,2.692-2.701c0.003-4.667,0.003-9.332,0-13.997
		c0-1.137-0.599-1.729-1.733-1.729C23.856,11.081,19.94,11.081,16.025,11.081z"/>
	<path fill-rule="evenodd" clip-rule="evenodd" fill="#FFFFFF" d="M11.438,0c0.549,0.206,0.992,0.523,1.135,1.134
		c0.03,0.131,0.043,0.267,0.043,0.401c0.003,1.385,0.003,2.771,0,4.154c0,0.836-0.597,1.478-1.429,1.509
		c-0.542,0.021-1.085,0.021-1.625,0C8.73,7.167,8.134,6.526,8.133,5.69C8.131,4.336,8.131,2.983,8.131,1.629
		c0-0.825,0.332-1.292,1.108-1.575C9.267,0.044,9.288,0.019,9.313,0C10.021,0,10.73,0,11.438,0z"/>
	<path fill-rule="evenodd" clip-rule="evenodd" fill="#FFFFFF" d="M23.313,0c0.552,0.206,0.994,0.523,1.136,1.134
		c0.03,0.131,0.043,0.267,0.043,0.401c0.004,1.385,0.004,2.771,0,4.154c0,0.836-0.596,1.478-1.429,1.509
		c-0.539,0.021-1.082,0.021-1.625,0c-0.83-0.031-1.429-0.673-1.429-1.509c-0.003-1.354,0-2.707,0-4.061
		c0-0.825,0.327-1.292,1.104-1.575c0.028-0.01,0.05-0.035,0.075-0.054C21.896,0,22.604,0,23.313,0z"/>
	<path fill-rule="evenodd" clip-rule="evenodd" fill="#FFFFFF" d="M27.564,32c0.475-0.137,0.971-0.225,1.419-0.424
		c1.663-0.748,2.652-2.033,2.958-3.84c0.013-0.06,0.041-0.115,0.06-0.172c0,1.479,0,2.957,0,4.436C30.521,32,29.042,32,27.564,32z"
		/>
	<path fill-rule="evenodd" clip-rule="evenodd" fill="#FFFFFF" d="M10.368,16.322c0,0.426,0.003,0.853,0,1.28
		c-0.009,0.798-0.657,1.445-1.454,1.452c-0.864,0.007-1.729,0.007-2.593,0c-0.78-0.007-1.431-0.658-1.438-1.436
		c-0.008-0.863-0.007-1.728,0-2.592c0.005-0.799,0.655-1.449,1.452-1.455c0.864-0.007,1.729-0.007,2.592,0.002
		c0.78,0.006,1.427,0.656,1.438,1.436C10.374,15.447,10.368,15.883,10.368,16.322z"/>
	<path fill-rule="evenodd" clip-rule="evenodd" fill="#FFFFFF" d="M18.68,16.304c0,0.427,0.003,0.854,0,1.28
		c-0.006,0.818-0.651,1.467-1.471,1.47c-0.853,0.007-1.706,0.007-2.559,0c-0.798-0.007-1.447-0.654-1.454-1.451
		c-0.006-0.863-0.007-1.728,0-2.592c0.007-0.78,0.657-1.432,1.436-1.438c0.864-0.009,1.728-0.007,2.594-0.002
		c0.796,0.006,1.445,0.655,1.454,1.453C18.686,15.451,18.68,15.878,18.68,16.304z"/>
	<path fill-rule="evenodd" clip-rule="evenodd" fill="#FFFFFF" d="M24.243,19.057c-0.428,0-0.855,0.004-1.282-0.003
		c-0.796-0.009-1.445-0.654-1.45-1.455c-0.007-0.852-0.007-1.707,0-2.56c0.003-0.815,0.651-1.464,1.469-1.468
		c0.854-0.005,1.71-0.007,2.561,0.002c0.799,0.004,1.447,0.656,1.454,1.453c0.006,0.854,0.003,1.708,0,2.561
		c-0.007,0.815-0.655,1.46-1.473,1.467C25.093,19.061,24.67,19.057,24.243,19.057z"/>
	<path fill-rule="evenodd" clip-rule="evenodd" fill="#FFFFFF" d="M7.595,27.368c-0.416,0-0.833,0.007-1.249,0
		c-0.815-0.007-1.459-0.654-1.463-1.476c-0.004-0.842-0.003-1.688,0-2.53c0.004-0.833,0.653-1.476,1.492-1.479
		c0.833-0.002,1.666-0.002,2.499,0c0.854,0.003,1.491,0.646,1.495,1.507c0.003,0.824,0.001,1.646,0,2.468
		c-0.003,0.874-0.643,1.507-1.523,1.51C8.427,27.371,8.012,27.368,7.595,27.368z"/>
	<path fill-rule="evenodd" clip-rule="evenodd" fill="#FFFFFF" d="M18.68,24.635c0,0.427,0.006,0.854,0,1.282
		c-0.009,0.796-0.658,1.443-1.456,1.45c-0.854,0.007-1.706,0.007-2.561,0c-0.815-0.003-1.463-0.652-1.466-1.469
		c-0.006-0.855-0.006-1.71,0-2.562c0.007-0.799,0.655-1.447,1.454-1.454c0.855-0.006,1.708-0.002,2.563,0
		c0.815,0.007,1.461,0.655,1.467,1.474C18.683,23.783,18.68,24.208,18.68,24.635z"/>
	<path fill-rule="evenodd" clip-rule="evenodd" fill="#FFFFFF" d="M24.246,21.883c0.427,0,0.854-0.002,1.282,0
		c0.814,0.01,1.459,0.655,1.466,1.474c0.003,0.844,0.003,1.687,0,2.529c-0.004,0.836-0.651,1.479-1.487,1.481
		c-0.843,0.003-1.688,0.007-2.531,0c-0.817-0.007-1.462-0.654-1.465-1.472c-0.007-0.843-0.004-1.688,0-2.531
		c0.003-0.836,0.647-1.475,1.487-1.481C23.413,21.881,23.831,21.883,24.246,21.883z"/>
</g>
</svg>
