<!DOCTYPE svg PUBLIC "-//W3C//DTD SVG 1.1//EN" "http://www.w3.org/Graphics/SVG/1.1/DTD/svg11.dtd">
<svg version="1.1" id="Isolation_Mode" xmlns="http://www.w3.org/2000/svg" xmlns:xlink="http://www.w3.org/1999/xlink" x="0px"
	 y="0px" width="34px" height="34px" viewBox="15 15 34 34" enable-background="new 15 15 34 34" xml:space="preserve">
<path fill="#FFFFFF" d="M27.484,31.957c0,0.25-0.025,0.494-0.061,0.733l10.447,5.115c0.894-0.939,2.153-1.529,3.554-1.529
	c2.711,0,4.908,2.197,4.908,4.908s-2.197,4.908-4.908,4.908s-4.908-2.197-4.908-4.908c0-0.25,0.025-0.494,0.062-0.733L26.13,35.336
	c-0.894,0.94-2.154,1.528-3.554,1.528c-2.711,0-4.908-2.196-4.908-4.907s2.197-4.908,4.908-4.908c1.406,0,2.671,0.595,3.566,1.542
	l10.432-5.06c-0.034-0.233-0.059-0.472-0.059-0.716c0-2.711,2.197-4.908,4.908-4.908s4.908,2.197,4.908,4.908
	s-2.197,4.908-4.908,4.908c-1.406,0-2.671-0.595-3.566-1.542L27.426,31.24C27.461,31.476,27.484,31.713,27.484,31.957z"/>
</svg>
