<!DOCTYPE svg PUBLIC "-//W3C//DTD SVG 1.1//EN" "http://www.w3.org/Graphics/SVG/1.1/DTD/svg11.dtd">
<svg version="1.1" id="Layer_1" xmlns="http://www.w3.org/2000/svg" xmlns:xlink="http://www.w3.org/1999/xlink" x="0px" y="0px"
	 width="36.301px" height="45.5px" viewBox="-66 0 36.301 45.5" enable-background="new -66 0 36.301 45.5" xml:space="preserve">
<g>
	<path fill="#FFFFFF" d="M-38.85,28.607h-18c-0.829,0-1.5,0.654-1.5,1.463c0,0.811,0.671,1.467,1.5,1.467h18
		c0.828,0,1.5-0.656,1.5-1.467C-37.35,29.262-38.021,28.607-38.85,28.607z"/>
	<path fill="#FFFFFF" d="M-31.349,14.5v25.82c0,1.617-1.345,2.93-3.001,2.93h-1.5h-25.5c-1.656,0-3-1.313-3-2.93V5.178
		c0-1.618,1.344-2.929,3-2.929h16.5h1l3,2.929h-17.5c-1.657,0-3,1.311-3,2.929v29.286c0,1.617,1.343,2.928,3,2.928h21
		c1.656,0,3-1.311,3-2.928V11.5L-31.349,14.5z"/>
	<path fill="#FFFFFF" d="M-38.85,22.749h-18c-0.829,0-1.5,0.655-1.5,1.464c0,0.811,0.671,1.465,1.5,1.465h18
		c0.828,0,1.5-0.654,1.5-1.465C-37.35,23.404-38.021,22.749-38.85,22.749z"/>
	<path fill="#FFFFFF" d="M-56.85,19.821h7.5c0.828,0,1.5-0.655,1.5-1.464s-0.672-1.465-1.5-1.465h-7.5c-0.829,0-1.5,0.656-1.5,1.465
		S-57.679,19.821-56.85,19.821z"/>
	<path fill="#FFFFFF" d="M-38.85,34.463h-18c-0.829,0-1.5,0.656-1.5,1.465s0.671,1.465,1.5,1.465h18c0.828,0,1.5-0.656,1.5-1.465
		S-38.021,34.463-38.85,34.463z"/>
</g>
<path fill="#FFFFFF" d="M-33.846,8.4l-5.583,5.583c-0.412,0.412-1.081,0.412-1.493,0l-2.161-2.161c-0.412-0.412-0.412-1.081,0-1.492
	l5.583-5.583l-2.497-2.498h8.647l0,8.648L-33.846,8.4z"/>
</svg>
