<!DOCTYPE svg PUBLIC "-//W3C//DTD SVG 1.1//EN" "http://www.w3.org/Graphics/SVG/1.1/DTD/svg11.dtd">
<svg version="1.1" id="Layer_1" xmlns="http://www.w3.org/2000/svg" xmlns:xlink="http://www.w3.org/1999/xlink" x="0px" y="0px"
	 width="36.301px" height="45.5px" viewBox="0 0 36.301 45.5" enable-background="new 0 0 36.301 45.5" xml:space="preserve">
<path fill-rule="evenodd" clip-rule="evenodd" fill="#FFFFFF" d="M31.65,43.25h-1.5H4.65c-1.657,0-3-1.313-3-2.93V5.178
	c0-1.618,1.343-2.929,3-2.929h16.5h3l10.5,10.25v2.929v24.893C34.65,41.938,33.307,43.25,31.65,43.25z M31.65,15.428h-7.5
	c-1.656,0-3-1.312-3-2.929V5.178H7.65c-1.657,0-3,1.311-3,2.929v29.286c0,1.617,1.343,2.928,3,2.928h21c1.656,0,3-1.311,3-2.928
	V15.428z M27.15,37.393h-18c-0.829,0-1.5-0.656-1.5-1.465s0.671-1.465,1.5-1.465h18c0.828,0,1.5,0.656,1.5,1.465
	S27.979,37.393,27.15,37.393z M27.15,31.536h-18c-0.829,0-1.5-0.656-1.5-1.465s0.671-1.463,1.5-1.463h18
	c0.828,0,1.5,0.654,1.5,1.463S27.979,31.536,27.15,31.536z M27.15,25.678h-18c-0.829,0-1.5-0.654-1.5-1.465
	c0-0.809,0.671-1.464,1.5-1.464h18c0.828,0,1.5,0.655,1.5,1.464C28.65,25.024,27.979,25.678,27.15,25.678z M16.65,19.821h-7.5
	c-0.829,0-1.5-0.655-1.5-1.464s0.671-1.465,1.5-1.465h7.5c0.828,0,1.5,0.656,1.5,1.465S17.479,19.821,16.65,19.821z"/>
</svg>
