<!DOCTYPE svg PUBLIC "-//W3C//DTD SVG 1.1//EN" "http://www.w3.org/Graphics/SVG/1.1/DTD/svg11.dtd">
<svg version="1.1" id="Layer_1" xmlns="http://www.w3.org/2000/svg" xmlns:xlink="http://www.w3.org/1999/xlink" x="0px" y="0px"
	 width="32px" height="32px" viewBox="0 0 32 32" enable-background="new 0 0 32 32" xml:space="preserve">
<path fill="#FFFFFF" d="M32,15.284c0,0.227-0.094,0.408-0.279,0.545c-0.209,0.137-0.431,0.171-0.663,0.103l-11.726-3.923
	c-0.279-0.091-0.441-0.273-0.488-0.545c-0.047-0.273,0.047-0.489,0.279-0.648l2.757-1.91l0.454-0.341
	c-0.814-0.637-1.728-1.131-2.74-1.484c-1.012-0.353-2.088-0.529-3.227-0.529c-1.326,0-2.577,0.25-3.751,0.75
	c-1.175,0.5-2.198,1.177-3.071,2.03c-0.872,0.853-1.564,1.854-2.076,3.002C6.956,13.481,6.7,14.704,6.7,16s0.256,2.519,0.768,3.667
	c0.512,1.148,1.204,2.149,2.076,3.002c0.873,0.854,1.896,1.53,3.071,2.03c1.175,0.501,2.425,0.751,3.751,0.751
	c1.628,0,3.152-0.363,4.571-1.092c1.42-0.729,2.571-1.752,3.455-3.07c0.14-0.205,0.332-0.33,0.576-0.375
	c0.244-0.046,0.459,0,0.645,0.136l4.119,2.798c0.162,0.091,0.267,0.262,0.313,0.512c0.069,0.182,0.035,0.375-0.104,0.58
	c-0.768,1.115-1.652,2.109-2.652,2.984c-1,0.876-2.082,1.615-3.246,2.219c-1.162,0.602-2.396,1.063-3.698,1.381S17.716,32,16.367,32
	c-2.257,0-4.379-0.421-6.369-1.263c-1.989-0.841-3.723-1.984-5.2-3.428c-1.478-1.444-2.646-3.139-3.507-5.084
	C0.43,20.281,0,18.206,0,16c0-2.207,0.43-4.281,1.291-6.226s2.03-3.639,3.507-5.083c1.477-1.444,3.21-2.587,5.2-3.429
	C11.987,0.42,14.11,0,16.366,0c2.257,0,4.368,0.42,6.334,1.262c1.966,0.841,3.692,1.99,5.183,3.446l0.209-0.171l2.757-1.91
	c0.209-0.16,0.453-0.182,0.732-0.068c0.256,0.16,0.384,0.364,0.384,0.614L32,15.284z M32,15.284"/>
</svg>
