<!DOCTYPE svg PUBLIC "-//W3C//DTD SVG 1.1//EN" "http://www.w3.org/Graphics/SVG/1.1/DTD/svg11.dtd">
<svg version="1.1" id="Layer_1" xmlns="http://www.w3.org/2000/svg" xmlns:xlink="http://www.w3.org/1999/xlink" x="0px" y="0px"
	 width="300px" height="300px" viewBox="0 0 300 300" enable-background="new 0 0 300 300" xml:space="preserve">
<g>
	<g>
		<path d="M179.708,234.95c0,0-7.546-1.286-8.192,0.484c-0.64,1.762-2.729,18.468-2.082,22.801c0.638,4.171,1.441,4.975,5.777,4.975
			c4.178,0,15.575,0.966,14.133-2.566c-1.286-3.529-2.729-5.62-4.98-3.529c-2.083,2.081-9.636,1.761-9.636-2.091
			C174.728,251.009,175.53,237.844,179.708,234.95L179.708,234.95z"/>
		<path d="M179.708,234.95"/>
		<path d="M151.286,238.802c0,0-8.029,0.966-7.545,10.602c0.158,7.226,9.308,7.866,9.308,7.866s4.817,0,7.553-3.852
			c0,0,2.566,8.029-6.424,9.635c-9.157,1.605-16.542-4.498-16.542-12.847c0-8.192,5.458-15.9,14.61-16.542
			c8.996-0.482,10.764,6.59,8.193,7.866c0,0-3.047,1.286-5.301-1.926C154.335,238.318,151.286,238.802,151.286,238.802
			L151.286,238.802z"/>
		<path d="M151.286,238.802"/>
		<path d="M118.522,258.072c0,0,7.39,0.163,7.227-3.695c-0.319-4.015-6.423-4.334-8.832-5.457c-2.566-0.966-7.703-1.926-7.703-7.546
			c0-5.784,5.939-8.029,10.438-8.029c4.491,0,10.757,3.048,8.668,6.423c-2.089,3.37-3.531-0.316-5.62-0.966
			c-2.245-0.64-7.709-1.926-7.546,2.572c0.158,4.5,6.259,4.015,9.792,5.62c3.538,1.605,6.587,4.173,6.424,8.35
			c-0.158,3.852-4.334,7.866-12.521,7.866c-8.193,0-13.01-8.187-10.438-10.596c1.606-1.605,4.015,2.091,4.015,2.091
			S113.705,257.752,118.522,258.072L118.522,258.072z"/>
		<path d="M118.522,258.072"/>
		<path d="M136.03,260.964c0-1.286-1.122-2.242-2.409-2.242c-1.122,0-2.089,0.958-2.089,2.242c0,1.286,0.967,2.246,2.089,2.246
			C134.908,263.21,136.03,262.25,136.03,260.964L136.03,260.964z"/>
		<path d="M136.03,260.964"/>
		<path d="M166.059,260.964c0-1.286-0.966-2.242-2.246-2.242c-1.285,0-2.25,0.958-2.25,2.242c0,1.286,0.968,2.246,2.25,2.246
			C165.093,263.21,166.059,262.25,166.059,260.964L166.059,260.964z"/>
		<path d="M166.059,260.964"/>
		<path d="M195.284,260.964c0-1.286-0.96-2.242-2.246-2.242c-1.284,0-2.252,0.958-2.252,2.242c0,1.286,0.968,2.246,2.252,2.246
			C194.324,263.21,195.284,262.25,195.284,260.964L195.284,260.964z"/>
		<path d="M195.284,260.964"/>
		<path fill="#00784A" d="M85.602,263.373H37.754v-49.299H2.901l59.9-177.447l14.771,45.767c0,0-17.983,21.034-15.255,58.45
			c2.735,38.057,30.354,64.079,54.28,73.231H85.446L85.602,263.373z"/>
		<path fill="#00784A" d="M85.602,263.373"/>
		<path fill="#00784A" d="M214.397,263.373h47.85v-49.299h34.852L237.199,36.627l-14.772,45.767c0,0,17.984,21.034,15.255,58.45
			c-2.734,38.057-30.353,64.079-54.278,73.231h31.15L214.397,263.373z"/>
		<path fill="#00784A" d="M214.397,263.373"/>
		<path d="M134.425,208.291V56.7c0,0,16.861-3.212,31.15,0.32v17.181h-12.847v55.247h10.602v21.352h-9.955v58.94
			C153.375,209.741,143.577,210.38,134.425,208.291L134.425,208.291z"/>
		<path d="M134.425,208.291"/>
		<path d="M89.617,84.321L89.617,84.321z"/>
		<path d="M89.617,84.321c-19.426,23.285-16.697,53.157-16.697,53.157c2.573,37.41,30.191,56.68,30.191,56.68v-23.442
			c0,0-9.635-11.887-10.118-20.073h14.936v46.727c0,0,9.635,6.587,20.393,9.315V58.463C105.2,64.412,89.617,84.321,89.617,84.321z
			 M107.928,129.449H91.224c0,0,0.646-23.613,16.704-36.935V129.449z"/>
		<path d="M107.928,129.449"/>
		<path d="M171.516,58.463L171.516,58.463z"/>
		<path d="M210.22,84.321c0,0-15.575-19.908-38.704-25.857v148.221c10.765-2.729,20.399-9.315,20.399-9.315v-46.727h14.93
			c-0.477,8.187-10.112,20.073-10.112,20.073v23.442c0,0,27.618-19.271,30.347-56.68C227.081,137.478,229.81,107.606,210.22,84.321z
			 M191.915,129.449V92.514c15.896,13.322,16.861,36.935,16.861,36.935H191.915z"/>
		<path fill="#0097CE" d="M49.314,182.597c-15.418-2.089-26.497-1.442-35.812,0l-4.498,13.167
			c9.798-2.081,21.521-3.368,38.541-2.245c52.354,3.851,51.067,23.768,103.42,27.465C98.933,214.074,101.505,189.341,49.314,182.597
			L49.314,182.597z"/>
		<path fill="#0097CE" d="M49.314,182.597"/>
		<path fill="#FFFFFF" d="M47.708,193.519c-17.18-1.123-28.748,0-38.704,2.245L5.154,207.65c9.955-3.374,21.999-5.938,40.786-6.104
			c52.509-0.163,52.673,19.754,105.183,19.437C98.613,217.286,100.055,197.369,47.708,193.519L47.708,193.519z"/>
		<path fill="#FFFFFF" d="M47.708,193.519"/>
		<path fill="#0097CE" d="M45.94,201.547c-18.625,0-30.669,2.575-40.786,5.94l-2.251,6.587h22.966
			c5.463-1.769,11.724-3.212,18.95-3.856c52.354-4.173,53.96,15.098,106.307,10.921C98.613,221.301,98.449,201.384,45.94,201.547
			L45.94,201.547z"/>
		<path fill="#0097CE" d="M45.94,201.547"/>
		<path fill="#0097CE" d="M250.529,182.597c15.414-2.089,26.496-1.442,35.805,0l4.5,13.167c-9.794-2.081-21.361-3.368-38.541-2.245
			c-52.349,3.851-50.904,23.768-103.258,27.465C201.067,214.074,198.339,189.341,250.529,182.597L250.529,182.597z"/>
		<path fill="#0097CE" d="M250.529,182.597"/>
		<path fill="#FFFFFF" d="M252.292,193.519c17.024-1.286,28.748,0,38.54,2.089l4.015,11.88c-10.118-3.366-22.162-5.775-40.786-5.94
			c-52.51-0.163-52.673,19.754-105.183,19.437C201.225,217.123,199.781,197.213,252.292,193.519L252.292,193.519z"/>
		<path fill="#FFFFFF" d="M252.292,193.519"/>
		<path fill="#0097CE" d="M254.061,201.547c18.624,0,30.668,2.575,40.786,5.94l2.252,6.424h-22.967
			c-5.462-1.605-11.724-3.049-18.95-3.694c-52.354-4.335-53.961,15.099-106.306,10.766
			C201.388,221.301,201.551,201.384,254.061,201.547L254.061,201.547z"/>
		<path fill="#0097CE" d="M254.061,201.547"/>
	</g>
</g>
</svg>
