<!DOCTYPE svg PUBLIC "-//W3C//DTD SVG 1.1//EN" "http://www.w3.org/Graphics/SVG/1.1/DTD/svg11.dtd">
<svg version="1.1" id="Layer_1" xmlns="http://www.w3.org/2000/svg" xmlns:xlink="http://www.w3.org/1999/xlink" x="0px" y="0px"
	 width="200px" height="200px" viewBox="0 0 200 200" enable-background="new 0 0 200 200" xml:space="preserve">
<g>
	<circle fill="#FFFFFF" cx="100" cy="100" r="93"/>
	<g>
		<g>
			<path d="M113.682,135.175c0,0-3.469-0.593-3.771,0.224c-0.294,0.812-1.263,8.508-0.957,10.506
				c0.293,1.918,0.663,2.287,2.657,2.287c1.923,0,7.178,0.449,6.515-1.181c-0.595-1.626-1.254-2.589-2.296-1.626
				c-0.962,0.963-4.438,0.813-4.438-0.962C111.395,142.574,111.764,136.507,113.682,135.175L113.682,135.175z"/>
			<path d="M113.682,135.175"/>
			<path d="M100.596,136.95c0,0-3.7,0.444-3.479,4.884c0.073,3.327,4.283,3.621,4.283,3.621s2.22,0,3.479-1.771
				c0,0,1.188,3.698-2.958,4.438c-4.215,0.74-7.62-2.07-7.62-5.918c0-3.773,2.519-7.326,6.732-7.62
				c4.147-0.224,4.962,3.037,3.776,3.625c0,0-1.41,0.594-2.447-0.89C101.998,136.727,100.596,136.95,100.596,136.95L100.596,136.95z
				"/>
			<path d="M100.596,136.95"/>
			<path d="M85.502,145.826c0,0,3.404,0.078,3.322-1.703c-0.143-1.848-2.957-1.992-4.064-2.512
				c-1.181-0.445-3.548-0.887-3.548-3.479c0-2.665,2.731-3.697,4.81-3.697c2.067,0,4.955,1.402,3.995,2.959
				c-0.963,1.554-1.629-0.148-2.592-0.445c-1.036-0.295-3.55-0.887-3.48,1.184c0.071,2.075,2.888,1.852,4.517,2.59
				c1.63,0.738,3.031,1.924,2.959,3.846c-0.067,1.779-2,3.623-5.771,3.623c-3.772,0-5.989-3.77-4.808-4.879
				c0.746-0.737,1.85,0.961,1.85,0.961S83.283,145.678,85.502,145.826L85.502,145.826z"/>
			<path d="M85.502,145.826"/>
			<path d="M93.568,147.158c0-0.59-0.517-1.035-1.112-1.035c-0.521,0-0.964,0.445-0.964,1.035c0,0.593,0.443,1.033,0.964,1.033
				C93.052,148.191,93.568,147.751,93.568,147.158L93.568,147.158z"/>
			<path d="M93.568,147.158"/>
			<path d="M107.399,147.158c0-0.59-0.449-1.035-1.041-1.035c-0.594,0-1.027,0.445-1.027,1.035c0,0.593,0.436,1.033,1.027,1.033
				S107.399,147.751,107.399,147.158L107.399,147.158z"/>
			<path d="M107.399,147.158"/>
			<path d="M120.858,147.158c0-0.59-0.438-1.035-1.031-1.035c-0.592,0-1.037,0.445-1.037,1.035c0,0.593,0.445,1.033,1.037,1.033
				C120.42,148.191,120.858,147.751,120.858,147.158L120.858,147.158z"/>
			<path d="M120.858,147.158"/>
			<path fill="#00784A" d="M70.337,148.268H48.293v-22.707H32.236l27.598-81.744L66.637,64.9c0,0-8.281,9.688-7.03,26.925
				c1.26,17.532,13.986,29.519,25.007,33.735H70.261L70.337,148.268z"/>
			<path fill="#00784A" d="M70.337,148.268"/>
			<path fill="#00784A" d="M129.665,148.268h22.044v-22.707h16.058l-27.599-81.744L133.362,64.9c0,0,8.283,9.688,7.031,26.925
				c-1.258,17.532-13.984,29.519-25.008,33.735h14.354L129.665,148.268z"/>
			<path fill="#00784A" d="M129.665,148.268"/>
			<path d="M92.824,122.895"/>
			<path d="M72.182,65.787"/>
			<g>
				
					<linearGradient id="SVGID_1_" gradientUnits="userSpaceOnUse" x1="132.0005" y1="-118.499" x2="132.0005" y2="-191.3142" gradientTransform="matrix(1 0 0 -1 -32 -67.3223)">
					<stop  offset="0" style="stop-color:#333132"/>
					<stop  offset="1" style="stop-color:#000000"/>
				</linearGradient>
				<path fill="url(#SVGID_1_)" d="M92.824,122.895V53.063c0,0,7.771-1.48,14.354,0.145v7.918h-5.923v25.446h4.883v9.838h-4.588
					v27.15C101.549,123.561,97.042,123.855,92.824,122.895L92.824,122.895z"/>
				
					<linearGradient id="SVGID_2_" gradientUnits="userSpaceOnUse" x1="109.2241" y1="-118.4961" x2="109.2241" y2="-191.3108" gradientTransform="matrix(1 0 0 -1 -32 -67.3223)">
					<stop  offset="0" style="stop-color:#333132"/>
					<stop  offset="1" style="stop-color:#000000"/>
				</linearGradient>
				<path fill="url(#SVGID_2_)" d="M72.182,65.787c-8.946,10.726-7.691,24.487-7.691,24.487
					c1.188,17.233,13.909,26.108,13.909,26.108v-10.797c0,0-4.436-5.475-4.664-9.244h6.886v21.523c0,0,4.436,3.034,9.396,4.288
					V53.875C79.358,56.614,72.182,65.787,72.182,65.787z M80.621,86.573h-7.698c0,0,0.302-10.876,7.698-17.013V86.573z"/>
				
					<linearGradient id="SVGID_3_" gradientUnits="userSpaceOnUse" x1="154.7407" y1="-118.4961" x2="154.7407" y2="-191.3108" gradientTransform="matrix(1 0 0 -1 -32 -67.3223)">
					<stop  offset="0" style="stop-color:#333132"/>
					<stop  offset="1" style="stop-color:#000000"/>
				</linearGradient>
				<path fill="url(#SVGID_3_)" d="M127.742,65.787c0,0-7.173-9.172-17.83-11.912v68.277c4.957-1.254,9.396-4.288,9.396-4.288
					V96.341h6.877c-0.221,3.77-4.654,9.244-4.654,9.244v10.797c0,0,12.723-8.875,13.982-26.108
					C135.512,90.273,136.766,76.513,127.742,65.787z M119.307,86.573V69.56c7.324,6.137,7.771,17.013,7.771,17.013H119.307z"/>
			</g>
			<path d="M119.307,69.56"/>
			<path fill="#0097CE" d="M53.619,111.057c-7.103-0.959-12.207-0.664-16.496,0l-2.071,6.064c4.511-0.958,9.913-1.548,17.755-1.031
				c24.11,1.774,23.521,10.951,47.639,12.652C76.481,125.561,77.659,114.165,53.619,111.057L53.619,111.057z"/>
			<path fill="#0097CE" d="M53.619,111.057"/>
			<path fill="#FFFFFF" d="M52.88,116.09c-7.916-0.517-13.248,0-17.829,1.031l-1.773,5.479c4.582-1.556,10.131-2.736,18.783-2.813
				c24.191-0.075,24.268,9.104,48.458,8.955C76.328,127.041,76.997,117.864,52.88,116.09L52.88,116.09z"/>
			<path fill="#FFFFFF" d="M52.88,116.09"/>
			<path fill="#0097CE" d="M52.061,119.788c-8.573,0-14.129,1.185-18.783,2.735l-1.041,3.037h10.578
				c2.521-0.815,5.399-1.48,8.732-1.778c24.113-1.921,24.856,6.954,48.972,5.03C76.328,128.891,76.252,119.712,52.061,119.788
				L52.061,119.788z"/>
			<path fill="#0097CE" d="M52.061,119.788"/>
			<path fill="#0097CE" d="M146.309,111.057c7.099-0.959,12.209-0.664,16.493,0l2.072,6.064c-4.513-0.958-9.837-1.548-17.754-1.031
				c-24.115,1.774-23.447,10.951-47.563,12.652C123.52,125.561,122.27,114.165,146.309,111.057L146.309,111.057z"/>
			<path fill="#0097CE" d="M146.309,111.057"/>
			<path fill="#FFFFFF" d="M147.121,116.09c7.848-0.594,13.241,0,17.754,0.96l1.849,5.474c-4.656-1.553-10.209-2.662-18.781-2.736
				c-24.191-0.075-24.269,9.104-48.461,8.955C123.598,126.962,122.938,117.791,147.121,116.09L147.121,116.09z"/>
			<path fill="#FFFFFF" d="M147.121,116.09"/>
			<path fill="#0097CE" d="M147.94,119.788c8.574,0,14.125,1.185,18.781,2.735l1.043,2.961h-10.58
				c-2.521-0.74-5.4-1.404-8.731-1.703c-24.111-1.996-24.854,6.953-48.973,4.961C123.673,128.891,123.75,119.712,147.94,119.788
				L147.94,119.788z"/>
			<path fill="#0097CE" d="M147.94,119.788"/>
		</g>
	</g>
</g>
</svg>
