<!DOCTYPE svg PUBLIC "-//W3C//DTD SVG 1.1//EN" "http://www.w3.org/Graphics/SVG/1.1/DTD/svg11.dtd">
<svg version="1.1" id="Layer_1" xmlns="http://www.w3.org/2000/svg" xmlns:xlink="http://www.w3.org/1999/xlink" x="0px" y="0px"
	 width="128px" height="128px" viewBox="35.5 17.768 128 128" enable-background="new 35.5 17.768 128 128" xml:space="preserve">
<g id="Livello_x0020_1">
	<path fill="#41ABE1" d="M147.525,51.999c-3.54,1.562-7.337,2.623-11.321,3.095c4.071-2.436,7.194-6.305,8.656-10.904
		c-3.812,2.265-8.025,3.898-12.51,4.786c-3.598-3.826-8.713-6.219-14.387-6.219c-10.877,0-19.704,8.827-19.704,19.703
		c0,1.547,0.173,3.053,0.517,4.485c-16.379-0.817-30.896-8.669-40.611-20.592c-1.69,2.909-2.665,6.29-2.665,9.901
		c0,6.835,3.482,12.869,8.771,16.394c-3.225-0.101-6.263-0.989-8.927-2.465c0,0.085,0,0.158,0,0.244
		c0,9.543,6.791,17.51,15.805,19.315c-1.648,0.444-3.396,0.688-5.187,0.688c-1.275,0-2.508-0.129-3.711-0.358
		c2.508,7.825,9.787,13.527,18.4,13.685c-6.75,5.287-15.233,8.44-24.475,8.44c-1.591,0-3.153-0.1-4.7-0.272
		c8.712,5.589,19.072,8.855,30.206,8.855c36.239,0,56.057-30.02,56.057-56.056c0-0.86-0.014-1.706-0.057-2.552
		c3.854-2.779,7.193-6.247,9.83-10.202L147.525,51.999z"/>
</g>
</svg>
