<!DOCTYPE svg PUBLIC "-//W3C//DTD SVG 1.1//EN" "http://www.w3.org/Graphics/SVG/1.1/DTD/svg11.dtd">
<svg version="1.1" id="Layer_1" xmlns="http://www.w3.org/2000/svg" xmlns:xlink="http://www.w3.org/1999/xlink" x="0px" y="0px"
	 width="128px" height="128px" viewBox="-0.5 0.5 128 128" enable-background="new -0.5 0.5 128 128" xml:space="preserve">
<g>
	<g id="corner_shadow">
		<image overflow="visible" opacity="0.1" width="63" height="63" xlink:href="42E42E66.png"  transform="matrix(1 0 0 1 -25 91)">
		</image>
		<g>
			<polygon fill="#FFFFFF" points="13.349,114.376 12.781,116.45 14.808,115.922 			"/>
		</g>
	</g>
	<g id="shape_1_">
		
			<image overflow="visible" opacity="0.15" width="183" height="183" xlink:href="42E42E6A.png"  transform="matrix(1 0 0 1 -27 -26)">
		</image>
		<g>
			<path fill="#FFFFFF" d="M12.781,116.45l7.307-26.678c-4.507-7.808-6.878-16.666-6.874-25.74
				C13.225,35.645,36.328,12.55,64.717,12.55c13.776,0.006,26.707,5.368,36.431,15.099c9.725,9.732,15.077,22.668,15.071,36.425
				c-0.012,28.386-23.118,51.485-51.502,51.485c-0.002,0,0.001,0,0,0h-0.022c-8.619-0.003-17.089-2.164-24.61-6.267L12.781,116.45z
				 M41.349,99.971l1.564,0.926c6.571,3.901,14.104,5.963,21.787,5.967h0.018c23.594,0,42.796-19.199,42.807-42.793
				c0.002-11.435-4.445-22.187-12.526-30.274c-8.083-8.088-18.83-12.545-30.265-12.55c-23.612,0-42.813,19.196-42.823,42.79
				c-0.003,8.085,2.258,15.961,6.544,22.773l1.018,1.619l-4.325,15.792L41.349,99.971z"/>
		</g>
	</g>
	<linearGradient id="shape_green_1_" gradientUnits="userSpaceOnUse" x1="64.4995" y1="114.6523" x2="64.4995" y2="14.3491">
		<stop  offset="0" style="stop-color:#20B038"/>
		<stop  offset="1" style="stop-color:#60D66A"/>
	</linearGradient>
	<path id="shape_green" fill="url(#shape_green_1_)" d="M14.572,114.652l7.054-25.756c-4.352-7.537-6.64-16.089-6.637-24.848
		c0.011-27.405,22.315-49.7,49.719-49.7c13.301,0.006,25.783,5.182,35.17,14.577c9.388,9.395,14.554,21.882,14.548,35.162
		c-0.01,27.406-22.315,49.704-49.716,49.704c-0.002,0,0.001,0,0,0h-0.022c-8.32-0.003-16.497-2.093-23.758-6.05L14.572,114.652z"/>
	<g id="shape">
		<image overflow="visible" opacity="0.1" width="141" height="141" xlink:href="42E42E6D.png"  transform="matrix(1 0 0 1 -6 -6)">
		</image>
		<g>
			<path fill="#FFFFFF" d="M12.781,116.45l7.307-26.678c-4.507-7.808-6.878-16.666-6.874-25.74
				C13.225,35.645,36.328,12.55,64.717,12.55c13.776,0.006,26.707,5.368,36.431,15.099c9.725,9.732,15.077,22.668,15.071,36.425
				c-0.012,28.386-23.118,51.485-51.502,51.485c-0.002,0,0.001,0,0,0h-0.022c-8.619-0.003-17.089-2.164-24.61-6.267L12.781,116.45z
				 M41.349,99.971l1.564,0.926c6.571,3.901,14.104,5.963,21.787,5.967h0.018c23.594,0,42.796-19.199,42.807-42.793
				c0.002-11.435-4.445-22.187-12.526-30.274c-8.083-8.088-18.83-12.545-30.265-12.55c-23.612,0-42.813,19.196-42.823,42.79
				c-0.003,8.085,2.258,15.961,6.544,22.773l1.018,1.619l-4.325,15.792L41.349,99.971z"/>
		</g>
	</g>
	<g id="phone">
		<image overflow="visible" opacity="0.08" width="125" height="121" xlink:href="42E42E6E.png"  transform="matrix(1 0 0 1 2 9)">
		</image>
		<g>
			<path fill-rule="evenodd" clip-rule="evenodd" fill="#FFFFFF" d="M51.844,42.509c-0.964-2.143-1.979-2.186-2.896-2.223
				c-0.75-0.033-1.608-0.031-2.466-0.031s-2.252,0.323-3.432,1.61s-4.504,4.401-4.504,10.731c0,6.333,4.611,12.451,5.255,13.31
				c0.643,0.857,8.901,14.267,21.982,19.424c10.869,4.286,13.083,3.434,15.442,3.22c2.358-0.215,7.612-3.112,8.686-6.117
				s1.073-5.581,0.751-6.119c-0.323-0.535-1.181-0.857-2.467-1.502c-1.288-0.642-7.613-3.756-8.793-4.186
				c-1.181-0.428-2.039-0.644-2.896,0.646c-0.858,1.286-3.323,4.184-4.073,5.041c-0.751,0.859-1.501,0.969-2.789,0.324
				c-1.286-0.646-5.432-2.004-10.349-6.387c-3.825-3.41-6.408-7.624-7.159-8.912c-0.75-1.287-0.081-1.983,0.565-2.626
				c0.578-0.575,1.287-1.501,1.931-2.253c0.642-0.752,0.856-1.288,1.285-2.146c0.43-0.859,0.215-1.611-0.107-2.254
				C55.489,51.418,52.989,45.054,51.844,42.509z"/>
		</g>
	</g>
</g>
</svg>
